<svg width="14" height="8" viewBox="0 0 14 8" fill="none" xmlns="http://www.w3.org/2000/svg">
<path d="M13.2866 3.6178L9.42452 0.157332C9.37057 0.107774 9.30484 0.0681771 9.23153 0.0410843C9.15822 0.0139915 9.07895 0 8.9988 0C8.91865 0 8.83938 0.0139915 8.76607 0.0410843C8.69276 0.0681771 8.62703 0.107774 8.57308 0.157332C8.45965 0.262044 8.39682 0.39827 8.39682 0.539537C8.39682 0.680805 8.45965 0.817024 8.57308 0.921736L11.4049 3.45837H1.08558C0.922073 3.46829 0.76912 3.52959 0.657473 3.62994C0.545827 3.73029 0.483765 3.86225 0.483765 3.99929C0.483765 4.13633 0.545827 4.26829 0.657473 4.36864C0.76912 4.46899 0.922073 4.53029 1.08558 4.54021H11.4032L8.57138 7.07826C8.45794 7.18298 8.39512 7.3192 8.39512 7.46047C8.39512 7.60174 8.45794 7.73796 8.57138 7.84267C8.62532 7.89223 8.69105 7.93182 8.76436 7.95892C8.83767 7.98601 8.91694 8 8.9971 8C9.07725 8 9.15652 7.98601 9.22983 7.95892C9.30314 7.93182 9.36887 7.89223 9.42281 7.84267L13.2866 4.38932C13.4025 4.28419 13.4668 4.14649 13.4668 4.00356C13.4668 3.86063 13.4025 3.72293 13.2866 3.6178Z" fill="#FBAD17"/>
</svg>
