<svg width="60" height="60" viewBox="0 0 60 60" fill="none" xmlns="http://www.w3.org/2000/svg">
<g clip-path="url(#clip0_42_92)">
<path d="M31.7632 55.7812H5.77519C2.84925 55.7812 0.46875 53.4009 0.46875 50.4748V9.52519C0.46875 6.59906 2.84906 4.21875 5.77519 4.21875H50.4748C53.4008 4.21875 55.7812 6.59906 55.7812 9.52519V31.7625C55.7812 32.5389 55.1514 33.1688 54.375 33.1688C53.5986 33.1688 52.9688 32.5389 52.9688 31.7625V9.52519C52.9688 8.15006 51.8499 7.03125 50.4748 7.03125H5.77519C4.40006 7.03125 3.28125 8.15006 3.28125 9.52519V50.4748C3.28125 51.8499 4.40006 52.9688 5.77519 52.9688H31.7634C32.5399 52.9688 33.1697 53.5986 33.1697 54.375C33.1697 55.1514 32.5397 55.7812 31.7632 55.7812Z" fill="#113A75"/>
<path d="M54.375 18.2812H1.875C1.09856 18.2812 0.46875 17.6514 0.46875 16.875C0.46875 16.0986 1.09856 15.4688 1.875 15.4688H54.375C55.1514 15.4688 55.7812 16.0986 55.7812 16.875C55.7812 17.6514 55.1514 18.2812 54.375 18.2812Z" fill="#113A75"/>
<path d="M28.125 10.7812C27.3486 10.7812 26.7188 10.1514 26.7188 9.375V1.875C26.7188 1.09856 27.3486 0.46875 28.125 0.46875C28.9014 0.46875 29.5312 1.09856 29.5312 1.875V9.375C29.5312 10.1514 28.9014 10.7812 28.125 10.7812Z" fill="#113A75"/>
<path d="M9.375 10.7812C8.59856 10.7812 7.96875 10.1514 7.96875 9.375V1.875C7.96875 1.09856 8.59856 0.46875 9.375 0.46875C10.1514 0.46875 10.7812 1.09856 10.7812 1.875V9.375C10.7812 10.1514 10.1514 10.7812 9.375 10.7812Z" fill="#113A75"/>
<path d="M46.875 10.7812C46.0986 10.7812 45.4688 10.1514 45.4688 9.375V1.875C45.4688 1.09856 46.0986 0.46875 46.875 0.46875C47.6514 0.46875 48.2812 1.09856 48.2812 1.875V9.375C48.2812 10.1514 47.6514 10.7812 46.875 10.7812Z" fill="#113A75"/>
<path d="M16.875 33.2812H9.375C8.59856 33.2812 7.96875 32.6514 7.96875 31.875V24.375C7.96875 23.5986 8.59856 22.9688 9.375 22.9688H16.875C17.6514 22.9688 18.2812 23.5986 18.2812 24.375V31.875C18.2812 32.6514 17.6514 33.2812 16.875 33.2812ZM10.7812 30.4688H15.4688V25.7812H10.7812V30.4688Z" fill="#113A75"/>
<path d="M31.875 33.2812H24.375C23.5986 33.2812 22.9688 32.6514 22.9688 31.875V24.375C22.9688 23.5986 23.5986 22.9688 24.375 22.9688H31.875C32.6514 22.9688 33.2812 23.5986 33.2812 24.375V31.875C33.2812 32.6514 32.6514 33.2812 31.875 33.2812ZM25.7812 30.4688H30.4688V25.7812H25.7812V30.4688Z" fill="#113A75"/>
<path d="M16.875 48.2812H9.375C8.59856 48.2812 7.96875 47.6514 7.96875 46.875V39.375C7.96875 38.5986 8.59856 37.9688 9.375 37.9688H16.875C17.6514 37.9688 18.2812 38.5986 18.2812 39.375V46.875C18.2812 47.6514 17.6514 48.2812 16.875 48.2812ZM10.7812 45.4688H15.4688V40.7812H10.7812V45.4688Z" fill="#113A75"/>
<path d="M46.875 59.5312C39.8968 59.5312 34.2188 53.8541 34.2188 46.875C34.2188 39.8959 39.8968 34.2188 46.875 34.2188C53.8532 34.2188 59.5312 39.8959 59.5312 46.875C59.5312 53.8541 53.8532 59.5312 46.875 59.5312ZM46.875 37.0312C41.4478 37.0312 37.0312 41.4469 37.0312 46.875C37.0312 52.3031 41.4478 56.7188 46.875 56.7188C52.3022 56.7188 56.7188 52.3031 56.7188 46.875C56.7188 41.4469 52.3022 37.0312 46.875 37.0312Z" fill="#113A75"/>
<path d="M50.625 48.2812H46.875C46.0986 48.2812 45.4688 47.6514 45.4688 46.875V41.25C45.4688 40.4736 46.0986 39.8438 46.875 39.8438C47.6514 39.8438 48.2812 40.4736 48.2812 41.25V45.4688H50.625C51.4014 45.4688 52.0312 46.0986 52.0312 46.875C52.0312 47.6514 51.4014 48.2812 50.625 48.2812Z" fill="#113A75"/>
</g>
<defs>
<clipPath id="clip0_42_92">
<rect width="60" height="60" fill="white"/>
</clipPath>
</defs>
</svg>
